<?xml version="1.0" standalone="no"?>
<!DOCTYPE svg PUBLIC "-//W3C//DTD SVG 1.1//EN" "http://www.w3.org/Graphics/SVG/1.1/DTD/svg11.dtd">
<svg xmlns="http://www.w3.org/2000/svg">
<defs >
<font id="Dosis" horiz-adv-x="434" ><font-face
    font-family="Dosis"
    units-per-em="1000"
    panose-1="2 1 2 3 2 2 2 6 0 3"
    ascent="1027"
    descent="-237"
    alphabetic="0" />
<glyph unicode=" " glyph-name="space" horiz-adv-x="200" />
<glyph unicode="!" glyph-name="exclam" horiz-adv-x="193" d="M61 15T61 30T71 55T97 66Q111 66 121 56T132 30Q132 16 122 5T97 -6Q82 -6 72 4ZM70 717Q70 748 96 748Q108 748 115 740T123 717Q123 627 118 440T112 163Q112 156 107 152T96 147Q90 147 86 151T81
163Q81 253 76 440T70 717Z" />
<glyph unicode="&quot;" glyph-name="quotedbl" horiz-adv-x="255" d="M43 751Q43 758 51 763T67 768T83 763T92 751L82 599Q82 581 67 581Q53 581 53 599L43 751ZM163 751Q163 758 171 763T187 768T203 763T212 751L202 599Q202 581 187 581Q173 581 173 599L163 751Z" />
<glyph unicode="#" glyph-name="numbersign" horiz-adv-x="547" d="M32 268T32 283T44 298H160L186 475H81Q63 475 63 491Q63 505 75 505H191L221 703Q223 713 233 713Q252 713 252 693L223 505H358L388 703Q390 713 400 713Q419 713 419 693L390 505H497Q516
505 516 490Q516 485 512 480T503 475H386L359 298H466Q485 298 485 282Q485 277 481 273T472 268H354L322 51Q319 36 305 36Q289 36 289 55L321 268H187L155 52Q152 36 140 36Q123 36 123 55L154 268H50Q32 268 32 283ZM192 298H326L353 475H219L192 298Z" />
<glyph unicode="$" glyph-name="dollar" horiz-adv-x="484" d="M44 105Q44 112 50 119T61 126T77 113T103 83T154 54T238 40V375Q214 383 208 385L182 395Q160 403 154 407T130 421T106 439T89 460T74 486T66 518T62 558Q62 594 73 622T101 668T142 697T189 714T238
720V751Q238 758 243 763T256 768T268 763T274 751V721Q329 719 373 702T417 669Q417 662 411 655T399 647Q395 647 380 655T337 673T274 684V402Q310 389 334 376T383 340T422 281T435 195Q435 108 392 62T274 6V-35Q274 -42 269 -47T256 -52T244 -47T238 -35V4Q193
4 154 16T93 44T57 77T44 105ZM98 561Q98 527 108 502T141 461T184 435T238 414V684Q98 676 98 561ZM274 43Q399 61 399 192Q399 264 367 301T274 362V43Z" />
<glyph unicode="%" glyph-name="percent" horiz-adv-x="741" d="M46 469V624Q46 679 77 705T161 731T244 705T276 624V469Q276 414 245 388T161 362T78 388T46 469ZM80 469Q80 393 161 393Q243 393 243 469V624Q243 700 161 700Q80 700 80 624V469ZM163 -5Q163
1 165 4L556 760Q560 768 569 768Q575 768 581 763T587 749Q587 744 584 738L196 -9Q190 -20 179 -20Q163 -20 163 -5ZM465 104V259Q465 314 496 340T580 366T663 340T695 259V104Q695 49 664 23T580 -3T497 23T465 104ZM499 104Q499 28 580 28Q662 28 662 104V259Q662
335 580 335Q499 335 499 259V104Z" />
<glyph unicode="&amp;" glyph-name="ampersand" horiz-adv-x="595" d="M41 199Q41 273 81 322T182 397Q155 429 140 450T111 508T96 583Q96 660 144 704T263 748Q299 748 329 738T376 712T402 684T411 661Q411 645 394 645Q388 645 380 656L360 680Q350 694 325
705T267 716Q207 716 173 679T138 580Q138 530 160 490T227 401L450 154Q487 238 489 359Q489 380 506 380Q521 380 521 357Q521 223 474 127L571 21Q576 14 576 10Q576 3 571 -1T560 -6T548 0L458 97Q390 -10 260 -10Q158 -10 100 50T41 199ZM78 203Q78 129 128
77T266 25Q379 25 434 122L203 371Q177 357 161 347T123 315T90 266T78 203Z" />
<glyph unicode="&apos;" glyph-name="quotesingle" horiz-adv-x="135" d="M43 751Q43 758 51 763T67 768T83 763T92 751L82 599Q82 581 67 581Q53 581 53 599L43 751Z" />
<glyph unicode="(" glyph-name="parenleft" horiz-adv-x="278" d="M67 143V591Q67 662 116 715T241 768Q248 768 253 763T258 751T253 739T241 733Q178 733 141 690T103 591V143Q103 72 143 44T241 15Q258 15 258 -2Q258 -10 253 -15T241 -20Q162 -20 115 23T67 143Z" />
<glyph unicode=")" glyph-name="parenright" horiz-adv-x="278" d="M20 -2Q20 15 37 15Q94 15 134 43T175 143V591Q175 647 138 690T37 733Q30 733 25 738T20 751T25 763T37 768Q112 768 161 715T211 591V143Q211 67 164 24T37 -20Q31 -20 26 -15T20 -2Z" />
<glyph unicode="*" glyph-name="asterisk" horiz-adv-x="416" d="M39 602Q39 610 44 616T57 622Q60 622 62 621L195 574L190 714Q190 731 208 731T226 714L221 573L354 621Q356 622 360 622Q367 622 372 616T377 602Q377 589 365 586L232 547L317 435Q320 430
320 426Q320 418 314 413T300 407Q293 407 287 414L208 529L128 413Q124 407 117 407T103 412T96 425Q96 431 100 436L184 546L50 586Q39 589 39 602Z" />
<glyph unicode="+" glyph-name="plus" horiz-adv-x="427" d="M36 240Q36 258 53 258H196V400Q196 407 201 412T214 418T226 413T231 400V258H373Q380 258 385 253T391 240T386 228T373 223H231V80Q231 63 214 63Q196 63 196 80V223H53Q36 223 36 240Z" />
<glyph unicode="," glyph-name="comma" horiz-adv-x="162" d="M45 30Q45 45 55 55T80 66Q94 66 105 57T116 29Q116 14 85 -66Q80 -77 69 -77Q53 -77 53 -64Q53 -59 54 -56L72 -5Q45 2 45 30Z" />
<glyph unicode="-" glyph-name="hyphen" horiz-adv-x="395" d="M50 240Q50 258 67 258H327Q334 258 339 253T345 240T340 228T327 223H67Q50 223 50 240Z" />
<glyph unicode="." glyph-name="period" horiz-adv-x="161" d="M45 15T45 30T55 55T81 66Q95 66 105 56T116 30Q116 16 106 5T81 -6Q66 -6 56 4Z" />
<glyph unicode="/" glyph-name="slash" horiz-adv-x="468" d="M22 -5Q22 1 24 4L415 760Q419 768 428 768Q434 768 440 763T446 749Q446 744 443 738L55 -9Q50 -20 38 -20Q22 -20 22 -5Z" />
<glyph unicode="0" glyph-name="zero" horiz-adv-x="521" d="M65 200V525Q65 632 118 681T260 731T402 682T456 525V200Q456 93 403 44T260 -6T118 43T65 200ZM101 200Q101 115 142 73T260 30T378 72T420 200V525Q420 610 379 652T260 695T142 653T101 525V200ZM229
349T229 362T238 384T261 393T283 384T292 362T283 340T261 330T239 339Z" />
<glyph unicode="1" glyph-name="one" horiz-adv-x="209" d="M19 563Q19 566 29 586L95 714Q104 731 118 731Q134 731 134 714V18Q134 0 116 0T98 18V639L55 559Q48 546 37 546Q30 546 25 551T19 563Z" />
<glyph unicode="2" glyph-name="two" horiz-adv-x="461" d="M38 18V115Q38 154 63 192T128 258L210 320L294 384Q332 415 357 456T383 543Q383 603 343 649T229 695Q168 695 130 661T92 563Q92 546 73 546Q56 546 56 574Q56 640 105 685T231 731Q315 731 367 676T419
544Q419 485 384 433T297 342L196 269Q145 234 110 195T74 115V36H412Q419 36 424 31T429 18T424 6T412 0H56Q49 0 44 5T38 18Z" />
<glyph unicode="3" glyph-name="three" horiz-adv-x="473" d="M33 151Q33 179 49 179Q68 179 68 158Q68 140 75 121T97 80T146 44T226 30Q304 30 346 72T388 200V219Q388 293 346 331T230 369Q211 369 211 387T229 405Q301 405 335 438T370 548Q370 622 338 658T233
695Q189 695 158 682T113 649T93 609T87 570Q87 546 69 546T51 576Q51 597 58 620T84 670T142 714T236 731Q406 731 406 557Q406 427 322 386Q424 343 424 219V200Q424 94 371 44T230 -6Q138 -6 86 42T33 151Z" />
<glyph unicode="4" glyph-name="four" horiz-adv-x="417" d="M11 196Q11 204 14 208L271 717Q278 731 291 731Q298 731 303 727T308 715Q308 710 305 704L57 214H289V448Q289 465 307 465T325 448V214H384Q402 214 402 196T384 178H325V18Q325 0 307 0T289 18V178H28Q11
178 11 196Z" />
<glyph unicode="5" glyph-name="five" horiz-adv-x="459" d="M32 159Q32 179 49 179Q68 179 68 161Q68 101 113 66T227 30Q304 30 345 72T387 200V219Q387 301 346 342T228 383H93Q68 383 68 397Q68 398 68 405T69 414L87 713Q89 731 105 731H372Q387 731 387
713T372 695H123L104 419H228Q317 419 370 371T423 219V200Q423 93 370 44T227 -6Q137 -6 85 41T32 159Z" />
<glyph unicode="6" glyph-name="six" horiz-adv-x="504" d="M65 200V525Q65 632 118 681T260 731T402 683T456 566Q456 546 439 546Q420 546 420 564Q420 622 374 658T260 695Q183 695 142 653T101 525V351Q153 425 261 425Q456 425 456 229V200Q456 93 403 44T261
-6T119 43T65 200ZM101 200Q101 115 142 73T261 30T379 72T420 200V229Q420 313 380 351T261 389Q101 389 101 238V200Z" />
<glyph unicode="7" glyph-name="seven" horiz-adv-x="442" d="M33 564V713Q33 720 38 725T51 731H406Q412 731 418 726T424 713V641Q424 636 422 633L104 10Q99 0 89 0Q69 0 69 15Q69 20 72 26L388 646V695H69V564Q69 557 64 552T51 546T39 551T33 564Z" />
<glyph unicode="8" glyph-name="eight" horiz-adv-x="489" d="M49 200V212Q49 354 153 398Q68 436 68 557Q68 731 245 731T422 557Q422 436 337 398Q440 355 440 212V200Q440 94 387 44T245 -6T103 44T49 200ZM85 200Q85 115 127 73T246 30Q322 30 363 72T404
200V212Q404 296 363 337T245 379T127 338T85 212V200ZM104 557Q104 416 245 416T386 557Q386 695 245 695T104 557Z" />
<glyph unicode="9" glyph-name="nine" horiz-adv-x="504" d="M48 159Q48 179 65 179Q84 179 84 161Q84 103 130 67T244 30Q321 30 362 72T403 200V374Q351 300 243 300Q48 300 48 496V525Q48 632 101 681T243 731T385 682T439 525V200Q439 93 386 44T244 -6T102
42T48 159ZM84 496Q84 412 124 374T243 336Q403 336 403 487V525Q403 610 362 652T243 695T125 653T84 525V496Z" />
<glyph unicode=":" glyph-name="colon" horiz-adv-x="193" d="M61 15T61 30T71 55T97 66Q111 66 121 56T132 30Q132 16 122 5T97 -6Q82 -6 72 4ZM61 371T61 386T71 411T97 422Q111 422 121 412T132 386Q132 372 122 361T97 350Q82 350 72 360Z" />
<glyph unicode=";" glyph-name="semicolon" horiz-adv-x="195" d="M61 30Q61 45 71 55T96 66Q110 66 121 57T132 29Q132 14 101 -66Q96 -77 85 -77Q69 -77 69 -64Q69 -59 70 -56L88 -5Q61 2 61 30ZM62 371T62 386T72 411T98 422Q112 422 122 412T133 386Q133 372
123 361T98 350Q83 350 73 360Z" />
<glyph unicode="&lt;" glyph-name="less" horiz-adv-x="395" d="M30 277Q30 288 40 296L315 478Q320 481 324 481Q331 481 337 476T343 464Q343 454 334 449L76 277L334 106Q343 101 343 91Q343 84 337 79T324 74Q320 74 315 77L40 259Q30 265 30 277Z" />
<glyph unicode="=" glyph-name="equal" horiz-adv-x="431" d="M73 176Q73 194 90 194H340Q347 194 352 189T358 176T353 164T340 159H90Q73 159 73 176ZM73 379Q73 397 90 397H340Q347 397 352 392T358 379T353 367T340 362H90Q73 362 73 379Z" />
<glyph unicode="&gt;" glyph-name="greater" horiz-adv-x="395" d="M52 91Q52 101 61 106L319 277L61 449Q52 454 52 464Q52 471 58 476T71 481Q76 481 80 478L355 296Q365 288 365 277Q365 265 355 259L80 77Q76 74 71 74Q64 74 58 79T52 91Z" />
<glyph unicode="?" glyph-name="question" horiz-adv-x="383" d="M25 690Q25 710 68 729T164 748Q253 748 299 697T345 566Q345 519 328 478T291 415T243 365T204 325Q186 302 182 269T177 164Q177 147 160 147T143 164Q143 249 151 285T178 345Q187 356 216 383T262
430T294 486T310 565Q310 635 272 674T160 713Q123 713 97 703T57 683T39 673T30 678T25 690ZM124 15T124 30T134 55T160 66Q174 66 184 56T195 30T185 5T160 -6T135 4Z" />
<glyph unicode="@" glyph-name="at" horiz-adv-x="707" d="M61 220Q61 290 78 349T130 454T224 526T363 552Q507 552 583 471T659 234Q659 41 551 41Q517 41 491 59T457 102Q428 75 403 64T336 52Q210 52 210 158Q210 222 257 244T404 267H453V288Q453 335 427
357T346 379Q307 379 281 368T253 356Q245 356 241 362T236 374Q236 390 274 402T355 414Q420 414 454 382T488 289V125Q490 104 510 89T553 74Q592 74 608 121T625 233Q625 367 559 441T360 515Q288 515 235 491T153 425T109 332T95 221Q95 165 107 118T146 31T219
-32T329 -55Q369 -55 401 -47T451 -30T475 -22Q481 -22 485 -26T490 -36Q490 -53 438 -71T326 -90Q214 -90 138 -12T61 220ZM245 157Q245 85 334 85Q388 85 420 110T453 166V233H405Q365 233 341 231T293 222T257 199T245 157Z" />
<glyph unicode="A" glyph-name="A" horiz-adv-x="521" d="M25 16Q25 20 26 22L243 723Q247 737 261 737T280 723L495 22Q495 21 495 20T496 17Q496 10 490 5T476 0Q464 0 460 13L409 177H111L61 13Q57 0 43 0Q25 0 25 16ZM122 213H398L261 661L122 213Z" />
<glyph unicode="B" glyph-name="B" horiz-adv-x="527" d="M83 17V713Q83 731 101 731H251Q350 731 403 696T456 564Q456 501 433 457T371 396Q474 353 474 220V203Q474 97 421 49T278 0H101Q83 0 83 17ZM119 36H278Q438 36 438 203V220Q438 304 397 341T278 378H119V36ZM119
414H258Q344 414 382 447T420 564Q420 641 378 668T253 695H119V414Z" />
<glyph unicode="C" glyph-name="C" horiz-adv-x="512" d="M76 200V525Q76 631 131 681T275 731Q366 731 416 685T467 574Q467 546 449 546T431 564Q430 586 423 605T401 647T353 682T274 695Q112 695 112 525V200Q112 30 278 30Q316 30 344 39T386 60T411 93T425
126T431 161Q433 179 449 179Q467 179 467 150Q467 88 415 41T272 -6Q185 -6 131 44T76 200Z" />
<glyph unicode="D" glyph-name="D" horiz-adv-x="550" d="M83 17V714Q83 731 101 731H278Q367 731 420 682T474 525V206Q474 99 421 50T278 0H101Q83 0 83 17ZM119 36H278Q355 36 396 78T438 206V525Q438 610 397 652T278 695H119V36Z" />
<glyph unicode="E" glyph-name="E" horiz-adv-x="498" d="M83 18V713Q83 731 101 731H457Q474 731 474 714Q474 695 457 695H119V384H279Q296 384 296 365Q296 348 279 348H119V36H457Q474 36 474 17Q474 0 457 0H101Q83 0 83 18Z" />
<glyph unicode="F" glyph-name="F" horiz-adv-x="489" d="M83 17V713Q83 731 101 731H457Q474 731 474 714Q474 695 457 695H119V384H279Q296 384 296 365Q296 348 279 348H119V17Q119 0 101 0T83 17Z" />
<glyph unicode="G" glyph-name="G" horiz-adv-x="531" d="M76 200V525Q76 632 129 681T271 731Q361 731 414 684T467 566Q467 546 449 546Q432 546 431 564Q422 630 381 662T271 695Q194 695 153 653T112 525V200Q112 115 153 73T271 30T389 72T431 200V348H272Q255
348 255 366T272 384H450Q467 384 467 365V200Q467 93 414 44T271 -6T129 43T76 200Z" />
<glyph unicode="H" glyph-name="H" horiz-adv-x="557" d="M83 18V714Q83 731 101 731T119 714V397H438V714Q438 731 456 731T474 714V18Q474 0 456 0T438 18V361H119V18Q119 0 101 0T83 18Z" />
<glyph unicode="I" glyph-name="I" horiz-adv-x="202" d="M83 18V714Q83 731 101 731T119 714V18Q119 0 101 0T83 18Z" />
<glyph unicode="J" glyph-name="J" horiz-adv-x="496" d="M26 159Q26 179 43 179Q62 179 62 161Q62 97 107 64T222 30Q299 30 340 72T381 200V695H222Q205 695 205 714Q205 731 222 731H399Q417 731 417 713V200Q417 93 364 44T222 -6Q132 -6 79 41T26 159Z" />
<glyph unicode="K" glyph-name="K" horiz-adv-x="508" d="M83 18V714Q83 731 101 731T119 714V322L442 725Q446 731 456 731Q463 731 468 725T474 712Q474 706 470 702L239 415L497 27Q500 22 500 18Q500 11 495 6T481 0Q472 0 466 9L215 385L119 265V18Q119 0
101 0T83 18Z" />
<glyph unicode="L" glyph-name="L" horiz-adv-x="452" d="M83 18V714Q83 731 101 731T119 714V36H423Q438 36 438 18T423 0H101Q83 0 83 18Z" />
<glyph unicode="M" glyph-name="M" horiz-adv-x="653" d="M83 18V714Q83 731 101 731Q112 731 132 695L326 313L521 695Q541 731 552 731Q570 731 570 714V18Q570 0 552 0T534 18V643L345 279Q335 260 326 260Q316 260 307 279L119 643V18Q119 0 101 0T83 18Z" />
<glyph unicode="N" glyph-name="N" horiz-adv-x="557" d="M83 18V714Q83 731 101 731Q112 731 132 695L438 89V714Q438 731 456 731T474 714V18Q474 0 456 0Q445 0 427 36L119 643V18Q119 0 101 0T83 18Z" />
<glyph unicode="O" glyph-name="O" horiz-adv-x="543" d="M76 200V525Q76 632 129 681T271 731T413 682T467 525V200Q467 93 414 44T271 -6T129 43T76 200ZM112 200Q112 115 153 73T271 30T389 72T431 200V525Q431 610 390 652T271 695T153 653T112 525V200Z" />
<glyph unicode="P" glyph-name="P" horiz-adv-x="513" d="M83 18V714Q83 729 101 731H278Q367 731 420 682T474 525V513Q474 406 421 356T278 306H119V18Q119 0 101 0T83 18ZM119 342H278Q355 342 396 385T438 513V525Q438 610 397 652T278 695H119V342Z" />
<glyph unicode="Q" glyph-name="Q" horiz-adv-x="543" d="M76 200V525Q76 632 129 681T271 731T413 682T467 525V200Q467 99 419 49T290 -5V-91Q290 -109 272 -109T254 -91V-5Q172 -1 124 48T76 200ZM112 200Q112 39 254 30V114Q254 131 272 131T290 114V31Q431
41 431 200V525Q431 610 390 652T271 695T153 653T112 525V200Z" />
<glyph unicode="R" glyph-name="R" horiz-adv-x="509" d="M83 18V714Q83 729 101 731H268Q360 731 417 686T474 540Q474 370 306 350L471 29Q474 23 474 18Q474 10 469 5T456 0Q452 0 449 2T442 9T436 17L432 28Q428 36 427 36L267 348H119V18Q119 0 101 0T83
18ZM119 384H268Q347 384 392 422T438 540T393 657T268 695H119V384Z" />
<glyph unicode="S" glyph-name="S" horiz-adv-x="481" d="M42 95Q42 102 48 109T59 116T75 103T100 73T149 44T230 30Q312 30 354 71T397 192Q397 244 379 279T330 333T264 365L193 390Q157 402 127 420T79 473T60 558Q60 609 78 645T128 699T191 724T257 731Q317
731 366 714T415 679Q415 672 409 665T397 657Q393 657 376 666T328 685T256 695Q214 695 181 685T122 644T96 561Q96 518 114 489T163 444T228 417T300 391T366 355T414 294T433 195Q433 93 380 44T235 -6Q190 -6 152 6T90 34T55 67T42 95Z" />
<glyph unicode="T" glyph-name="T" horiz-adv-x="455" d="M14 706T14 713T19 725T32 731H423Q441 731 441 714Q441 695 423 695H246V18Q246 0 228 0T210 18V695H32Q24 695 19 700Z" />
<glyph unicode="U" glyph-name="U" horiz-adv-x="549" d="M79 200V714Q79 731 97 731T115 714V200Q115 115 156 73T274 30T392 72T434 200V714Q434 731 452 731T470 714V200Q470 93 417 44T274 -6T132 43T79 200Z" />
<glyph unicode="V" glyph-name="V" horiz-adv-x="519" d="M24 715Q24 731 42 731Q56 731 60 718L260 70L459 718Q463 731 475 731Q483 731 489 726T495 714Q495 713 495 712T494 709L279 8Q274 -6 260 -6T242 8L25 709Q24 711 24 715Z" />
<glyph unicode="W" glyph-name="W" horiz-adv-x="739" d="M26 715Q26 731 43 731Q59 731 62 718L242 70L348 455Q353 472 370 472Q385 472 390 455L498 70L677 718Q680 731 696 731Q713 731 713 715Q713 712 712 709L517 8Q512 -6 498 -6Q483 -6 480 8L370 400L261
8Q256 -6 242 -6Q227 -6 224 8L27 709Q26 712 26 715Z" />
<glyph unicode="X" glyph-name="X" horiz-adv-x="447" d="M28 18Q28 23 31 29L203 366L33 700Q28 710 28 717Q28 731 46 731Q58 731 76 695L223 405L371 695Q389 731 401 731Q419 731 419 717Q419 710 414 700L243 366L416 29Q419 23 419 18Q419 10 414 5T401
0Q397 0 394 2T386 9Q384 14 382 17L376 28L372 36L223 327L75 36Q74 36 70 28L66 17Q64 14 61 9T54 2T46 0Q38 0 33 5T28 18Z" />
<glyph unicode="Y" glyph-name="Y" horiz-adv-x="509" d="M22 715Q22 731 35 731Q46 731 55 714L254 313L454 714Q462 731 474 731T486 715Q486 705 481 695L273 279Q272 277 272 273V18Q272 0 254 0T236 18V273Q236 277 235 279L28 695Q22 707 22 715Z" />
<glyph unicode="Z" glyph-name="Z" horiz-adv-x="464" d="M27 17Q27 23 30 29L380 695H55Q37 695 37 713T55 731H410Q428 731 428 716Q428 708 423 700L74 36H420Q438 36 438 18T420 0H45Q27 0 27 17Z" />
<glyph unicode="[" glyph-name="bracketleft" horiz-adv-x="285" d="M74 -4V751Q74 758 79 763T92 768H248Q255 768 260 763T265 751T260 739T248 733H110V14H248Q255 14 260 9T265 -4T260 -16T248 -21H92Q85 -21 80 -16T74 -4Z" />
<glyph unicode="\" glyph-name="backslash" horiz-adv-x="340" d="M28 735Q28 744 33 749T46 754Q57 754 60 745L312 21Q313 19 313 15Q313 0 296 0Q283 0 279 12L29 727Q28 730 28 735Z" />
<glyph unicode="]" glyph-name="bracketright" horiz-adv-x="285" d="M20 -11T20 -4T25 8T37 14H175V733H37Q30 733 25 738T20 751T25 763T37 768H193Q200 768 205 763T211 751V-4Q211 -11 206 -16T193 -21H37Q30 -21 25 -16Z" />
<glyph unicode="^" glyph-name="asciicircum" horiz-adv-x="260" d="M0 619Q0 628 9 633L113 689Q121 694 130 694T147 689L251 634Q260 630 260 617Q260 610 255 606T243 601L234 604L130 659L26 603Q25 603 22 602T18 600Q11 600 6 605T0 619Z" />
<glyph unicode="_" glyph-name="underscore" horiz-adv-x="345" d="M-4 -18Q-4 0 13 0H333Q340 0 345 -5T351 -18T346 -30T333 -35H13Q-4 -35 -4 -18Z" />
<glyph unicode="`" glyph-name="grave" horiz-adv-x="133" d="M0 676Q0 694 16 694Q19 694 23 692L125 632Q133 628 133 619Q133 612 128 607T114 601Q110 601 105 604L10 658Q0 664 0 676Z" />
<glyph unicode="a" glyph-name="a" horiz-adv-x="423" d="M35 126Q35 201 94 229T268 258H324V286Q324 350 291 396T192 443Q165 443 142 437T105 423T88 416Q80 416 75 423T70 436Q70 451 109 464T194 478Q280 478 319 424T359 286V18Q359 0 342 0Q334 0 329
5T324 18V70Q258 -6 174 -6Q112 -6 74 27T35 126ZM70 126Q70 78 98 54T173 29Q227 29 275 67T324 139V223H269Q224 223 194 220T132 208T86 178T70 126Z" />
<glyph unicode="b" glyph-name="b" horiz-adv-x="468" d="M69 18V751Q69 768 86 768Q104 768 104 751V402Q147 478 238 478Q312 478 365 425T418 298V176Q418 104 365 49T240 -6Q196 -6 159 16T104 70V18Q104 11 99 6T86 0T74 5T69 18ZM104 139Q104 108 146 69T242
29Q298 29 340 74T383 176V298Q383 354 341 398T241 443Q187 443 146 403T104 298V139Z" />
<glyph unicode="c" glyph-name="c" horiz-adv-x="402" d="M52 176V296Q52 377 98 427T235 478Q290 478 328 458T366 419Q366 412 361 407T348 402Q343 402 331 412T294 432T235 443Q164 443 126 404T87 296V176Q87 107 125 68T236 29Q273 29 298 39T336 60T355
70Q362 70 367 65T372 53Q372 34 333 14T235 -6Q145 -6 99 44T52 176Z" />
<glyph unicode="d" glyph-name="d" horiz-adv-x="468" d="M50 176V298Q50 372 103 425T230 478Q321 478 364 402V751Q364 768 382 768Q399 768 399 751V18Q399 11 394 6T382 0T370 5T364 18V70Q347 38 310 16T228 -6Q157 -6 104 49T50 176ZM85 176Q85 119 127
74T226 29Q280 29 322 68T364 139V298Q364 363 323 403T227 443Q170 443 128 399T85 298V176Z" />
<glyph unicode="e" glyph-name="e" horiz-adv-x="445" d="M51 176V301Q51 373 103 425T229 478Q301 478 353 427T406 298Q406 272 400 256T380 233T355 225T323 223H86V176Q86 109 133 69T255 29Q292 29 317 39T354 60T373 70Q380 70 385 64T391 52Q391 42 375
29T326 5T253 -6Q164 -6 108 44T51 176ZM86 258H311Q348 258 359 265T371 295Q371 352 331 397T229 443Q169 443 128 401T86 301V258Z" />
<glyph unicode="f" glyph-name="f" horiz-adv-x="289" d="M69 17V590Q69 662 122 715T247 768H257Q264 768 269 763T275 750Q275 733 257 733H247Q188 733 147 690T104 590V472H257Q264 472 269 467T275 455T270 443T257 437H104V17Q104 10 99 5T85 0Q69 0 69 17Z" />
<glyph unicode="g" glyph-name="g" horiz-adv-x="446" d="M32 -108Q32 -29 123 3Q62 20 62 74Q62 120 111 143Q59 189 59 269V314Q59 387 103 432T220 478Q293 478 339 430Q353 456 374 473T414 491Q435 491 435 471Q435 462 430 457T417 452Q381 452 357 406Q382
371 382 314V269Q382 197 337 150T219 103Q173 103 137 124Q97 106 97 76Q97 53 120 41T179 25T255 17T331 2T389 -33T413 -102Q413 -166 363 -201T226 -237Q138 -237 85 -202T32 -108ZM67 -105Q67 -150 109 -177T226 -205Q299 -205 338 -178T378 -103Q378 -80
367 -64T339 -38T299 -23T255 -15T209 -11T172 -7Q67 -37 67 -105ZM94 270Q94 212 128 175T221 138Q278 138 312 175T347 269V314Q347 370 313 406T220 443Q162 443 128 407T94 314V270Z" />
<glyph unicode="h" glyph-name="h" horiz-adv-x="482" d="M69 18V751Q69 768 86 768Q104 768 104 751V402Q147 478 238 478Q312 478 365 425T418 298V18Q418 0 400 0Q383 0 383 18V298Q383 354 341 398T241 443Q187 443 146 403T104 298V18Q104 11 99 6T86 0T74 5T69 18Z" />
<glyph unicode="i" glyph-name="i" horiz-adv-x="171" d="M53 647T53 660T62 682T85 691T107 682T116 660T107 638T85 628T63 637ZM68 18V455Q68 462 73 467T85 472Q103 472 103 455V18Q103 11 98 6T85 0T73 5T68 18Z" />
<glyph unicode="j" glyph-name="j" horiz-adv-x="173" d="M-36 -219Q-36 -202 -18 -202Q35 -202 52 -164T69 -48V455Q69 472 86 472Q104 472 104 455V-48Q104 -237 -18 -237Q-25 -237 -30 -232T-36 -219ZM54 647T54 660T63 682T86 691T108 682T117 660T108 638T86
628T64 637Z" />
<glyph unicode="k" glyph-name="k" horiz-adv-x="437" d="M69 18V751Q69 768 86 768Q104 768 104 751V233L374 468Q380 472 384 472Q403 472 403 456Q403 446 397 441L236 301L421 28Q424 24 424 18Q424 11 419 6T407 0Q399 0 393 9L209 278L104 186V18Q104 11
99 6T86 0T74 5T69 18Z" />
<glyph unicode="l" glyph-name="l" horiz-adv-x="189" d="M77 18V751Q77 768 94 768Q112 768 112 751V18Q112 11 107 6T94 0T82 5T77 18Z" />
<glyph unicode="m" glyph-name="m" horiz-adv-x="767" d="M68 18V455Q68 472 85 472Q103 472 103 455V402Q146 478 237 478Q288 478 327 451T387 378Q412 427 453 452T539 478Q606 478 654 429T703 298V18Q703 11 698 6T685 0T673 5T668 18V298Q668 366 629 404T538
443Q485 443 444 404T403 304V17Q403 0 385 0Q368 0 368 17V303Q368 362 331 402T239 443T144 403T103 298V18Q103 11 98 6T85 0T73 5T68 18Z" />
<glyph unicode="n" glyph-name="n" horiz-adv-x="481" d="M68 18V455Q68 472 85 472Q103 472 103 455V402Q146 478 237 478Q311 478 364 425T417 298V18Q417 0 399 0Q382 0 382 18V298Q382 354 340 398T240 443Q186 443 145 403T103 298V18Q103 11 98 6T85 0T73 5T68 18Z" />
<glyph unicode="o" glyph-name="o" horiz-adv-x="455" d="M50 176V298Q50 370 102 424T227 478T352 425T405 298V176Q405 104 352 49T227 -6T103 49T50 176ZM85 176Q85 119 127 74T227 29T327 74T370 176V298Q370 354 328 398T227 443T127 399T85 298V176Z" />
<glyph unicode="p" glyph-name="p" horiz-adv-x="468" d="M69 -219V455Q69 472 86 472Q104 472 104 455V402Q147 478 238 478Q312 478 365 425T418 298V176Q418 104 365 49T240 -6Q196 -6 159 16T104 70V-219Q104 -226 99 -231T86 -237T74 -232T69 -219ZM104 139Q104
108 146 69T242 29Q298 29 340 74T383 176V298Q383 354 341 398T241 443Q187 443 146 403T104 298V139Z" />
<glyph unicode="q" glyph-name="q" horiz-adv-x="468" d="M50 176V298Q50 372 103 425T230 478Q321 478 364 402V455Q364 472 382 472Q399 472 399 455V-219Q399 -226 394 -231T382 -237T370 -232T364 -219V70Q347 38 310 16T228 -6Q157 -6 104 49T50 176ZM85
176Q85 119 127 74T226 29Q280 29 322 68T364 139V298Q364 363 323 403T227 443Q170 443 128 399T85 298V176Z" />
<glyph unicode="r" glyph-name="r" horiz-adv-x="308" d="M68 18V455Q68 472 85 472Q103 472 103 455V402Q148 478 242 478H279Q286 478 291 473T296 460T291 448T279 443H242Q186 443 145 403T103 298V18Q103 11 98 6T85 0T73 5T68 18Z" />
<glyph unicode="s" glyph-name="s" horiz-adv-x="373" d="M38 59Q38 66 42 71T52 76T67 68L88 52Q100 44 125 37T183 29Q242 29 271 52T300 112Q300 155 274 179T211 215L137 238Q100 250 74 276T48 348Q48 399 86 438T196 478Q240 478 279 464T318 436Q318 430
313 423T301 416Q300 416 267 429T197 443Q139 443 111 414T83 349Q83 313 109 292T172 261T246 239T309 196T335 114Q335 58 295 26T184 -6Q122 -6 80 16T38 59Z" />
<glyph unicode="t" glyph-name="t" horiz-adv-x="272" d="M66 139V686Q66 693 71 698T83 703Q90 703 95 698T101 686V472H236Q243 472 248 467T253 454T248 442T236 437H101V139Q101 82 126 59T212 35H235Q242 35 247 30T252 18T247 6T235 0H212Q66 0 66 139Z" />
<glyph unicode="u" glyph-name="u" horiz-adv-x="483" d="M64 174V454Q64 461 69 466T82 472T94 467T99 454V174Q99 117 141 73T242 29Q300 29 342 73T384 174V455Q384 462 389 467T402 472T414 467T419 455V174Q419 102 367 48T242 -6Q169 -6 117 48T64 174Z" />
<glyph unicode="v" glyph-name="v" horiz-adv-x="392" d="M19 454Q19 462 24 467T37 472Q49 472 54 461L196 68L337 455L338 460Q340 464 340 464T343 468T347 471T354 472Q361 472 367 467T373 455Q373 452 369 440L213 6Q208 -6 196 -6T179 6L23 440Q19 452 19 454Z" />
<glyph unicode="w" glyph-name="w" horiz-adv-x="654" d="M19 454Q19 462 24 467T37 472Q49 472 54 461L195 70L310 432Q315 445 328 445T346 432L457 65L601 461Q604 472 617 472Q635 472 635 455Q635 449 631 441L474 6Q470 -6 459 -6Q450 -6 445 5L328 380L213
11Q207 -6 196 -6Q189 -6 186 -3T179 11L23 441Q19 449 19 454Z" />
<glyph unicode="x" glyph-name="x" horiz-adv-x="381" d="M27 11Q27 16 30 21L169 238L30 451Q27 456 27 460Q27 468 32 473T45 478Q55 478 60 470L191 270L323 470Q328 478 337 478Q344 478 349 473T355 460Q355 456 352 451L212 238L352 21Q355 16 355 11Q355
4 350 -1T337 -6Q328 -6 323 2L191 205L60 2Q54 -6 45 -6Q38 -6 33 -1T27 11Z" />
<glyph unicode="y" glyph-name="y" horiz-adv-x="395" d="M18 461Q18 468 23 473T37 478Q50 478 53 467L198 67L342 467Q347 478 358 478Q376 478 376 461Q376 457 375 455L215 13L195 -42Q189 -58 174 -95T146 -151T116 -193T78 -226T36 -237Q29 -237 24 -232T19
-220Q19 -202 34 -202Q51 -202 67 -194T97 -167T120 -132T143 -84T162 -38L180 13L20 455Q18 459 18 461Z" />
<glyph unicode="z" glyph-name="z" horiz-adv-x="385" d="M26 16Q26 24 30 28L297 437H54Q47 437 42 442T36 454Q36 462 41 467T54 472H331Q338 472 343 467T349 454Q349 448 346 444L78 35H341Q348 35 353 30T359 17T354 5T341 0H44Q26 0 26 16Z" />
<glyph unicode="{" glyph-name="braceleft" horiz-adv-x="285" d="M34 373T34 384T43 399T64 403T84 407T94 422Q94 430 84 510T73 607Q73 672 124 720T248 768Q255 768 260 763T265 751T260 739T248 733Q188 733 149 694T109 604Q109 587 119 509T130 422Q130
407 119 397T96 384Q130 373 130 347Q130 337 120 243T109 127Q109 96 124 73T162 38T207 21T248 15Q265 15 265 -2Q265 -10 260 -15T248 -20Q173 -20 123 21T73 129Q73 147 83 243T94 347Q94 357 85 361T64 365T44 368Z" />
<glyph unicode="|" glyph-name="bar" horiz-adv-x="184" d="M74 -4V751Q74 758 79 763T92 768T104 763T110 751V-4Q110 -11 105 -16T92 -21T80 -16T74 -4Z" />
<glyph unicode="}" glyph-name="braceright" horiz-adv-x="285" d="M20 -2Q20 15 37 15Q56 15 78 20T123 37T161 72T176 127Q176 148 166 242T155 347Q155 361 165 370T189 384Q177 387 166 397T155 422Q155 430 165 508T176 604Q176 655 137 694T37 733Q30 733
25 738T20 751T25 763T37 768Q109 768 160 720T212 607Q212 590 202 510T191 422Q191 412 200 408T221 403T241 399T251 384T242 369T221 364T201 361T191 347Q191 339 201 243T212 129Q212 63 162 22T37 -20Q31 -20 26 -15T20 -2Z" />
<glyph unicode="~" glyph-name="asciitilde" horiz-adv-x="400" d="M53 242Q53 261 83 277T142 294Q166 294 204 276T269 257Q289 257 301 265T321 281T334 289Q348 289 348 274Q348 253 320 238T264 223Q241 223 203 241T135 260Q116 260 102 251T80 234T66 225Q53
225 53 242Z" />
<glyph unicode="&#xa0;" glyph-name="uni00A0" horiz-adv-x="200" />
<glyph unicode="&#xa1;" glyph-name="exclamdown" horiz-adv-x="193" d="M61 697T61 712T71 737T97 748Q111 748 121 737T132 712Q132 697 122 687T97 676Q81 676 71 686ZM70 25Q70 115 75 302T81 579Q81 586 85 590T96 595Q101 595 106 591T112 579Q112 489 117
302T123 25Q123 10 116 2T96 -6Q70 -6 70 25Z" />
<glyph unicode="&#xa2;" glyph-name="cent" horiz-adv-x="406" d="M41 356V376Q41 447 76 495T183 555V677Q183 684 188 689T201 694T213 689T219 677V558Q275 558 318 540T361 500Q361 492 355 487T342 482Q336 482 324 492T285 512T219 523V209Q258 209 284
219T323 240T342 250Q349 250 355 245T361 232Q361 209 317 192T219 174V57Q219 50 214 45T201 40T189 45T183 57V177Q114 188 78 236T41 356ZM76 356Q76 234 183 213V519Q76 497 76 376V356Z" />
<glyph unicode="&#xa3;" glyph-name="sterling" horiz-adv-x="461" d="M25 0T25 18T43 36H106L152 367H66Q49 367 49 384Q49 402 66 402H157L184 590Q195 663 254 715T387 768H399Q419 768 419 750Q419 743 414 738T399 733H382Q323 733 275 690T219 590L192 402H355Q371
402 371 384Q371 367 355 367H187L140 36H403Q419 36 419 18T403 0H43Q25 0 25 18Z" />
<glyph unicode="&#xa4;" glyph-name="currency" horiz-adv-x="489" d="M68 309T68 316T73 328L107 362Q69 411 69 472T106 581L80 608Q75 613 75 621Q75 628 80 633T93 638T105 633L130 607Q180 652 246 652Q306 652 356 612L384 640Q389 645 397 645Q404 645
409 640T414 628Q414 620 409 615L381 587Q424 538 424 472Q424 409 380 357L409 328Q414 321 414 316Q414 310 409 305T397 299Q389 299 385 304L356 332Q306 290 246 290Q182 290 130 337L97 304Q92 299 85 299T73 304ZM107 472Q107 416 148 372T246 328T344
372T386 472Q386 527 345 570T246 614T148 571T107 472Z" />
<glyph unicode="&#xa5;" glyph-name="yen" horiz-adv-x="479" d="M27 714Q27 720 32 725T45 731Q56 731 62 721L236 375L420 721Q426 731 437 731Q453 731 453 714Q453 709 452 707L262 345H384Q391 345 396 340T402 327T397 315T384 310H253V232H384Q391 232
396 227T402 214T397 202T384 197H253V17Q253 10 248 5T236 0T224 5T218 17V197H94Q77 197 77 214Q77 232 94 232H218V310H94Q77 310 77 327Q77 345 94 345H209L29 707Q27 711 27 714Z" />
<glyph unicode="&#xa6;" glyph-name="brokenbar" horiz-adv-x="186" d="M75 -4V278Q75 285 80 290T93 295T105 290T111 278V-4Q111 -11 106 -16T93 -21T81 -16T75 -4ZM75 469V751Q75 758 80 763T93 768T105 763T111 751V469Q111 462 106 457T93 452T81 457T75 469Z" />
<glyph unicode="&#xa7;" glyph-name="section" horiz-adv-x="461" d="M52 99Q52 119 71 119Q88 119 88 101Q88 55 119 13T224 -30Q292 -30 329 7T367 113Q367 151 351 176T308 215T251 238T187 259T129 288T87 337T70 415V547Q70 600 85 638T126 695T178 722T233
731Q306 731 345 688T385 573Q385 551 366 551T347 576Q347 619 322 657T235 695Q183 695 145 660T106 547Q106 496 136 467T210 424L298 396Q342 381 372 344T403 245V115Q403 25 355 -20T230 -66Q151 -66 102 -19T52 99ZM106 417Q106 373 125 344T177 301T242
276T311 250T367 210V243Q367 287 348 316T296 359T231 383T162 409T106 449V417Z" />
<glyph unicode="&#xa8;" glyph-name="dieresis" horiz-adv-x="170" d="M0 617T0 630T8 651T30 659T51 651T59 630T51 609T30 600T9 608ZM111 617T111 630T119 651T141 659T162 651T170 630T162 609T141 600T120 608Z" />
<glyph unicode="&#xa9;" glyph-name="copyright" horiz-adv-x="728" d="M57 358Q57 438 85 502T160 605T259 664T367 685T474 665T571 606T643 504T671 362Q671 282 643 218T568 115T469 56T361 35T254 55T157 114T85 216T57 358ZM92 358Q92 232 166 151T361 70T558
151T636 362Q636 488 562 569T367 650T170 569T92 358ZM267 283V450Q267 509 294 537T365 566Q410 566 436 540T463 475Q463 462 459 458T445 453Q427 453 427 467Q424 532 366 532Q303 532 303 450V283Q303 201 367 201Q385 201 397 207T415 225T423 246T427 268T445
282Q463 282 463 260Q463 221 436 195T364 168Q321 168 294 196T267 283Z" />
<glyph unicode="&#xaa;" glyph-name="ordfeminine" horiz-adv-x="306" d="M39 512Q39 559 76 577T184 596H216V611Q216 647 198 673T141 699Q116 699 96 690T75 681Q60 681 60 700Q60 711 86 721T142 731Q199 731 225 697T252 611V449Q252 434 234 434Q227 434
222 438T217 449V477Q179 434 130 431Q113 431 105 432Q39 442 39 512ZM75 514Q75 488 90 475T131 461Q162 461 189 483T216 527V569H185Q133 569 104 558T75 514Z" />
<glyph unicode="&#xab;" glyph-name="guillemotleft" horiz-adv-x="361" d="M40 268T40 277T45 294L141 472Q146 481 158 481Q165 481 169 476T174 464Q174 460 171 455L75 277L171 100Q174 96 174 91Q174 84 169 79T156 74Q146 74 141 83L45 260Q40 268 40 277ZM186
268T186 277T191 294L287 472Q292 481 304 481Q311 481 315 476T320 464Q320 460 317 455L221 277L317 100Q320 96 320 91Q320 84 315 79T302 74Q292 74 287 83L191 260Q186 268 186 277Z" />
<glyph unicode="&#xac;" glyph-name="logicalnot" horiz-adv-x="479" d="M61 240Q61 258 78 258H388Q395 258 400 253T406 240V80Q406 63 389 63Q371 63 371 80V223H78Q61 223 61 240Z" />
<glyph unicode="&#xad;" glyph-name="uni00AD" horiz-adv-x="455" d="M50 240Q50 258 67 258H387Q394 258 399 253T405 240T400 228T387 223H67Q50 223 50 240Z" />
<glyph unicode="&#xae;" glyph-name="registered" horiz-adv-x="728" d="M57 358Q57 438 85 502T160 605T259 664T367 685T474 665T571 606T643 504T671 362Q671 282 643 218T568 115T469 56T361 35T254 55T157 114T85 216T57 358ZM92 358Q92 232 166 151T361
70T558 151T636 362Q636 488 562 569T367 650T170 569T92 358ZM275 183V550Q275 562 288 564H372Q473 564 473 457Q473 367 403 353L472 194Q474 188 474 187Q474 180 468 174T453 168Q444 168 436 187L363 349H311V183Q311 169 293 169T275 183ZM311 380H372Q437
380 437 455T372 530H311V380Z" />
<glyph unicode="&#xaf;" glyph-name="overscore" horiz-adv-x="255" d="M0 664Q0 682 17 682H237Q244 682 249 677T255 664T250 652T237 647H17Q0 647 0 664Z" />
<glyph unicode="&#xb0;" glyph-name="degree" horiz-adv-x="429" d="M37 516T37 588T89 714T214 768T339 715T392 588Q392 516 339 461T214 406T90 461ZM75 588Q75 532 116 488T214 444T312 488T354 588Q354 643 313 686T214 730T116 687T75 588Z" />
<glyph unicode="&#xb1;" glyph-name="plusminus" horiz-adv-x="477" d="M61 85Q61 103 78 103H398Q405 103 410 98T416 85T411 73T398 68H78Q61 68 61 85ZM61 345Q61 363 78 363H221V505Q221 512 226 517T239 523T251 518T256 505V363H398Q405 363 410 358T416
345T411 333T398 328H256V185Q256 168 239 168Q221 168 221 185V328H78Q61 328 61 345Z" />
<glyph unicode="&#xb2;" glyph-name="uni00B2" horiz-adv-x="299" d="M37 378V426Q37 449 56 470T104 510L160 546Q188 564 207 586T227 633Q227 659 207 679T149 699Q118 699 99 684T80 640Q80 627 62 627Q46 627 46 647Q46 684 75 707T150 731Q198 731 229 703T260
634Q260 598 231 566T166 515T101 472T71 426V396H252Q265 396 265 381Q265 375 261 370T252 365H53Q37 365 37 378Z" />
<glyph unicode="&#xb3;" glyph-name="uni00B3" horiz-adv-x="306" d="M34 445Q34 462 49 462Q67 462 67 448Q67 428 86 411T148 393Q231 393 231 468V477Q231 543 149 543Q135 543 135 557Q135 572 149 572Q185 572 202 586T220 636Q220 700 151 700Q110 700 94
684T77 647Q77 631 61 631Q51 631 48 635T44 650Q44 679 68 705T152 731Q253 731 253 643Q253 577 207 558Q264 537 264 477V468Q264 413 233 388T149 362Q95 362 65 387T34 445Z" />
<glyph unicode="&#xb4;" glyph-name="acute" horiz-adv-x="133" d="M0 619Q0 628 8 632L110 692Q114 694 117 694Q133 694 133 676Q133 664 123 658L28 604Q24 601 19 601Q11 601 6 606T0 619Z" />
<glyph unicode="&#xb5;" glyph-name="uni00B5" horiz-adv-x="477" d="M77 -220V454Q77 461 82 466T94 472T106 467T112 454V150Q112 114 158 72T256 29Q309 29 350 74T391 174V454Q391 472 408 472Q426 472 426 454V174Q426 99 377 47T254 -6Q206 -6 168 16T112
70V-220Q112 -237 94 -237Q77 -237 77 -220Z" />
<glyph unicode="&#xb6;" glyph-name="paragraph" horiz-adv-x="512" d="M38 513V525Q38 632 91 681T234 731H411Q429 731 429 713V17Q429 0 411 0T393 17V695H318V18Q318 0 300 0T282 18V306H234Q145 306 92 356T38 513Z" />
<glyph unicode="&#xb7;" glyph-name="middot" horiz-adv-x="176" d="M53 285T53 300T63 325T89 336Q103 336 113 326T124 300Q124 286 114 275T89 264Q74 264 64 274Z" />
<glyph unicode="&#xb8;" glyph-name="cedilla" horiz-adv-x="156" d="M0 -183Q0 -178 4 -172T12 -165L30 -172Q48 -178 68 -178Q123 -178 123 -137Q123 -97 53 -92L24 -90L48 9H80L62 -65Q110 -66 133 -86T156 -135Q156 -164 134 -185T74 -207Q51 -207 26 -201T0 -183Z" />
<glyph unicode="&#xb9;" glyph-name="uni00B9" horiz-adv-x="158" d="M23 650Q23 658 30 665L75 724Q80 731 89 731Q103 731 103 718V378Q103 365 87 365Q70 365 70 378V674L47 642Q43 636 37 636T27 640T23 650Z" />
<glyph unicode="&#xba;" glyph-name="ordmasculine" horiz-adv-x="320" d="M44 546V616Q44 662 78 696T160 731Q207 731 241 697T276 616V546Q276 500 241 465T160 430T79 465T44 546ZM80 546Q80 514 103 489T160 463Q192 463 216 488T240 546V616Q240 648 217
672T160 697T104 673T80 616V546Z" />
<glyph unicode="&#xbb;" glyph-name="guillemotright" horiz-adv-x="361" d="M41 91Q41 96 44 100L140 277L44 455Q41 460 41 464Q41 471 45 476T57 481Q70 481 74 472L170 294Q175 286 175 277T170 260L74 83Q69 74 59 74Q52 74 47 79T41 91ZM187 91Q187 96 190
100L286 277L190 455Q187 460 187 464Q187 471 191 476T203 481Q216 481 220 472L316 294Q321 286 321 277T316 260L220 83Q215 74 205 74Q198 74 193 79T187 91Z" />
<glyph unicode="&#xbc;" glyph-name="onequarter" horiz-adv-x="579" d="M35 650Q35 658 42 665L87 724Q92 731 101 731Q115 731 115 718V378Q115 365 99 365Q82 365 82 378V674L59 642Q55 636 49 636T39 640T35 650ZM69 -5Q69 1 71 4L462 760Q466 768 475 768Q481
768 487 763T493 749Q493 744 490 738L102 -9Q96 -20 85 -20Q69 -20 69 -5ZM316 100Q316 102 318 108L459 355Q465 366 475 366Q481 366 486 362T492 352Q492 349 490 345L359 118H473V214Q473 226 489 226Q506 226 506 214V118H537Q551 118 551 102Q551 96 547
91T537 86H506V13Q506 0 489 0Q473 0 473 13V86H329Q316 86 316 100Z" />
<glyph unicode="&#xbd;" glyph-name="onehalf" horiz-adv-x="608" d="M39 650Q39 658 46 665L91 724Q96 731 105 731Q119 731 119 718V378Q119 365 103 365Q86 365 86 378V674L63 642Q59 636 53 636T43 640T39 650ZM57 -5Q57 1 59 4L450 760Q454 768 463 768Q469
768 475 763T481 749Q481 744 478 738L90 -9Q84 -20 73 -20Q57 -20 57 -5ZM343 13V61Q343 84 362 105T410 145L466 181Q494 199 513 221T533 268Q533 294 513 314T455 334Q424 334 405 319T386 275Q386 262 368 262Q352 262 352 282Q352 319 381 342T456 366Q504
366 535 338T566 269Q566 233 537 201T472 150T407 107T377 61V31H558Q571 31 571 16Q571 10 567 5T558 0H359Q343 0 343 13Z" />
<glyph unicode="&#xbe;" glyph-name="threequarters" horiz-adv-x="707" d="M36 445Q36 462 51 462Q69 462 69 448Q69 428 88 411T150 393Q233 393 233 468V477Q233 543 151 543Q137 543 137 557Q137 572 151 572Q187 572 204 586T222 636Q222 700 153 700Q112
700 96 684T79 647Q79 631 63 631Q53 631 50 635T46 650Q46 679 70 705T154 731Q255 731 255 643Q255 577 209 558Q266 537 266 477V468Q266 413 235 388T151 362Q97 362 67 387T36 445ZM192 -5Q192 1 194 4L585 760Q589 768 598 768Q604 768 610 763T616 749Q616
744 613 738L225 -9Q220 -20 208 -20Q192 -20 192 -5ZM445 100Q445 102 447 108L588 355Q594 366 604 366Q610 366 615 362T621 352Q621 349 619 345L488 118H602V214Q602 226 618 226Q635 226 635 214V118H666Q680 118 680 102Q680 96 676 91T666 86H635V13Q635
0 618 0Q602 0 602 13V86H458Q445 86 445 100Z" />
<glyph unicode="&#xbf;" glyph-name="questiondown" horiz-adv-x="383" d="M38 176Q38 223 55 264T92 327T140 377T179 417Q197 440 201 473T206 578Q206 595 223 595T240 578Q240 493 232 457T205 397Q195 385 167 358T122 312T89 256T73 177Q73 107 111 68T223
29Q260 29 286 39T326 59T344 69T353 64T358 52Q358 32 315 13T219 -6Q130 -6 84 45T38 176ZM188 697T188 712T198 737T223 748T248 738T259 712T249 687T223 676Q209 676 199 686Z" />
<glyph unicode="&#xc0;" glyph-name="Agrave" horiz-adv-x="521" d="M25 16Q25 20 26 22L243 723Q247 737 261 737T280 723L495 22Q495 21 495 20T496 17Q496 10 490 5T476 0Q464 0 460 13L409 177H111L61 13Q57 0 43 0Q25 0 25 16ZM122 213H398L261 661L122 213ZM194
935Q194 953 210 953Q213 953 217 951L319 891Q327 887 327 878Q327 871 322 866T308 860Q304 860 299 863L204 917Q194 923 194 935Z" />
<glyph unicode="&#xc1;" glyph-name="Aacute" horiz-adv-x="521" d="M25 16Q25 20 26 22L243 723Q247 737 261 737T280 723L495 22Q495 21 495 20T496 17Q496 10 490 5T476 0Q464 0 460 13L409 177H111L61 13Q57 0 43 0Q25 0 25 16ZM122 213H398L261 661L122 213ZM194
878Q194 887 202 891L304 951Q308 953 311 953Q327 953 327 935Q327 923 317 917L222 863Q218 860 213 860Q205 860 200 865T194 878Z" />
<glyph unicode="&#xc2;" glyph-name="Acircumflex" horiz-adv-x="521" d="M25 16Q25 20 26 22L243 723Q247 737 261 737T280 723L495 22Q495 21 495 20T496 17Q496 10 490 5T476 0Q464 0 460 13L409 177H111L61 13Q57 0 43 0Q25 0 25 16ZM122 213H398L261 661L122
213ZM130 878Q130 888 139 892L243 948Q251 953 260 953T277 948L381 893Q390 888 390 876Q390 869 385 865T373 860L364 863L260 918L156 862Q155 862 152 861T148 859Q141 859 136 864T130 878Z" />
<glyph unicode="&#xc3;" glyph-name="Atilde" horiz-adv-x="521" d="M25 16Q25 20 26 22L243 723Q247 737 261 737T280 723L495 22Q495 21 495 20T496 17Q496 10 490 5T476 0Q464 0 460 13L409 177H111L61 13Q57 0 43 0Q25 0 25 16ZM113 897Q113 916 143 932T202
949Q226 949 264 931T329 912Q349 912 361 920T381 936T394 944Q408 944 408 929Q408 908 380 893T324 878Q301 878 263 896T195 915Q176 915 162 907T140 889T126 880Q113 880 113 897ZM122 213H398L261 661L122 213Z" />
<glyph unicode="&#xc4;" glyph-name="Adieresis" horiz-adv-x="521" d="M25 16Q25 20 26 22L243 723Q247 737 261 737T280 723L495 22Q495 21 495 20T496 17Q496 10 490 5T476 0Q464 0 460 13L409 177H111L61 13Q57 0 43 0Q25 0 25 16ZM122 213H398L261 661L122
213ZM175 876T175 889T183 910T205 918T226 910T234 889T226 868T205 859T184 867ZM286 876T286 889T294 910T316 918T337 910T345 889T337 868T316 859T295 867Z" />
<glyph unicode="&#xc5;" glyph-name="Aring" horiz-adv-x="521" d="M25 16Q25 20 26 22L243 723Q247 737 261 737T280 723L495 22Q495 21 495 20T496 17Q496 10 490 5T476 0Q464 0 460 13L409 177H111L61 13Q57 0 43 0Q25 0 25 16ZM122 213H398L261 661L122 213ZM170
936Q170 972 196 999T260 1027Q295 1027 322 1000T350 936Q350 899 323 871T260 843Q223 843 197 871T170 936ZM194 936Q194 909 214 888T260 866T305 887T325 936Q325 960 306 980T260 1001Q233 1001 214 981T194 936Z" />
<glyph unicode="&#xc6;" glyph-name="AE" horiz-adv-x="680" d="M79 23V525Q79 632 132 681T275 731H635Q652 731 652 714Q652 695 635 695H398V384H558Q575 384 575 365Q575 348 558 348H398V36H635Q652 36 652 17Q652 0 635 0H380Q362 0 362 18V348H115V23Q115
0 97 0T79 23ZM115 384H362V695H275Q198 695 157 653T115 525V384Z" />
<glyph unicode="&#xc7;" glyph-name="Ccedilla" horiz-adv-x="512" d="M76 200V525Q76 631 131 681T275 731Q366 731 416 685T467 574Q467 546 449 546T431 564Q430 586 423 605T401 647T353 682T274 695Q112 695 112 525V200Q112 30 278 30Q316 30 344 39T386
60T411 93T425 126T431 161Q433 179 449 179Q467 179 467 150Q467 94 425 50T308 -3L293 -65Q341 -66 364 -86T387 -135Q387 -164 365 -185T305 -207Q282 -207 257 -201T231 -183Q231 -178 235 -172T243 -165L261 -172Q279 -178 299 -178Q354 -178 354 -137Q354
-97 284 -92L255 -90L276 -6H272Q185 -6 131 44T76 200Z" />
<glyph unicode="&#xc8;" glyph-name="Egrave" horiz-adv-x="498" d="M83 18V713Q83 731 101 731H457Q474 731 474 714Q474 695 457 695H119V384H279Q296 384 296 365Q296 348 279 348H119V36H457Q474 36 474 17Q474 0 457 0H101Q83 0 83 18ZM212 935Q212 953 228
953Q231 953 235 951L337 891Q345 887 345 878Q345 871 340 866T326 860Q322 860 317 863L222 917Q212 923 212 935Z" />
<glyph unicode="&#xc9;" glyph-name="Eacute" horiz-adv-x="498" d="M83 18V713Q83 731 101 731H457Q474 731 474 714Q474 695 457 695H119V384H279Q296 384 296 365Q296 348 279 348H119V36H457Q474 36 474 17Q474 0 457 0H101Q83 0 83 18ZM212 878Q212 887 220
891L322 951Q326 953 329 953Q345 953 345 935Q345 923 335 917L240 863Q236 860 231 860Q223 860 218 865T212 878Z" />
<glyph unicode="&#xca;" glyph-name="Ecircumflex" horiz-adv-x="498" d="M83 18V713Q83 731 101 731H457Q474 731 474 714Q474 695 457 695H119V384H279Q296 384 296 365Q296 348 279 348H119V36H457Q474 36 474 17Q474 0 457 0H101Q83 0 83 18ZM148 878Q148
888 157 892L261 948Q269 953 278 953T295 948L399 893Q408 888 408 876Q408 869 403 865T391 860L382 863L278 918L174 862Q173 862 170 861T166 859Q159 859 154 864T148 878Z" />
<glyph unicode="&#xcb;" glyph-name="Edieresis" horiz-adv-x="498" d="M83 18V713Q83 731 101 731H457Q474 731 474 714Q474 695 457 695H119V384H279Q296 384 296 365Q296 348 279 348H119V36H457Q474 36 474 17Q474 0 457 0H101Q83 0 83 18ZM193 876T193 889T201
910T223 918T244 910T252 889T244 868T223 859T202 867ZM304 876T304 889T312 910T334 918T355 910T363 889T355 868T334 859T313 867Z" />
<glyph unicode="&#xcc;" glyph-name="Igrave" horiz-adv-x="202" d="M34 935Q34 953 50 953Q53 953 57 951L159 891Q167 887 167 878Q167 871 162 866T148 860Q144 860 139 863L44 917Q34 923 34 935ZM83 18V714Q83 731 101 731T119 714V18Q119 0 101 0T83 18Z" />
<glyph unicode="&#xcd;" glyph-name="Iacute" horiz-adv-x="202" d="M34 878Q34 887 42 891L144 951Q148 953 151 953Q167 953 167 935Q167 923 157 917L62 863Q58 860 53 860Q45 860 40 865T34 878ZM83 18V714Q83 731 101 731T119 714V18Q119 0 101 0T83 18Z" />
<glyph unicode="&#xce;" glyph-name="Icircumflex" horiz-adv-x="202" d="M-29 878Q-29 888 -20 892L84 948Q92 953 101 953T118 948L222 893Q231 888 231 876Q231 869 226 865T214 860L205 863L101 918L-3 862Q-4 862 -7 861T-11 859Q-18 859 -23 864T-29 878ZM83
18V714Q83 731 101 731T119 714V18Q119 0 101 0T83 18Z" />
<glyph unicode="&#xcf;" glyph-name="Idieresis" horiz-adv-x="202" d="M16 876T16 889T24 910T46 918T67 910T75 889T67 868T46 859T25 867ZM83 18V714Q83 731 101 731T119 714V18Q119 0 101 0T83 18ZM127 876T127 889T135 910T157 918T178 910T186 889T178 868T157
859T136 867Z" />
<glyph unicode="&#xd0;" glyph-name="Eth" horiz-adv-x="560" d="M3 384Q3 402 20 402H93V714Q93 731 111 731H288Q377 731 430 682T484 525V206Q484 99 431 50T288 0H111Q93 0 93 17V367H20Q3 367 3 384ZM129 36H288Q365 36 406 78T448 206V525Q448 610 407 652T288
695H129V402H260Q267 402 272 397T278 384T273 372T260 367H129V36Z" />
<glyph unicode="&#xd1;" glyph-name="Ntilde" horiz-adv-x="557" d="M83 18V714Q83 731 101 731Q112 731 132 695L438 89V714Q438 731 456 731T474 714V18Q474 0 456 0Q445 0 427 36L119 643V18Q119 0 101 0T83 18ZM131 897Q131 916 161 932T220 949Q244 949 282
931T347 912Q367 912 379 920T399 936T412 944Q426 944 426 929Q426 908 398 893T342 878Q319 878 281 896T213 915Q194 915 180 907T158 889T144 880Q131 880 131 897Z" />
<glyph unicode="&#xd2;" glyph-name="Ograve" horiz-adv-x="543" d="M76 200V525Q76 632 129 681T271 731T413 682T467 525V200Q467 93 414 44T271 -6T129 43T76 200ZM112 200Q112 115 153 73T271 30T389 72T431 200V525Q431 610 390 652T271 695T153 653T112
525V200ZM205 935Q205 953 221 953Q224 953 228 951L330 891Q338 887 338 878Q338 871 333 866T319 860Q314 860 310 863L215 917Q205 923 205 935Z" />
<glyph unicode="&#xd3;" glyph-name="Oacute" horiz-adv-x="543" d="M76 200V525Q76 632 129 681T271 731T413 682T467 525V200Q467 93 414 44T271 -6T129 43T76 200ZM112 200Q112 115 153 73T271 30T389 72T431 200V525Q431 610 390 652T271 695T153 653T112
525V200ZM205 878Q205 887 213 891L315 951Q319 953 322 953Q338 953 338 935Q338 923 328 917L233 863Q228 860 224 860Q216 860 211 865T205 878Z" />
<glyph unicode="&#xd4;" glyph-name="Ocircumflex" horiz-adv-x="543" d="M76 200V525Q76 632 129 681T271 731T413 682T467 525V200Q467 93 414 44T271 -6T129 43T76 200ZM112 200Q112 115 153 73T271 30T389 72T431 200V525Q431 610 390 652T271 695T153 653T112
525V200ZM141 878Q141 888 150 892L254 948Q262 953 271 953T288 948L392 893Q401 888 401 876Q401 869 396 865T384 860L375 863L271 918L167 862Q166 862 163 861T159 859Q152 859 147 864T141 878Z" />
<glyph unicode="&#xd5;" glyph-name="Otilde" horiz-adv-x="543" d="M76 200V525Q76 632 129 681T271 731T413 682T467 525V200Q467 93 414 44T271 -6T129 43T76 200ZM112 200Q112 115 153 73T271 30T389 72T431 200V525Q431 610 390 652T271 695T153 653T112
525V200ZM124 897Q124 916 154 932T213 949Q237 949 275 931T340 912Q360 912 372 920T392 936T405 944Q419 944 419 929Q419 908 391 893T335 878Q312 878 274 896T206 915Q187 915 173 907T151 889T137 880Q124 880 124 897Z" />
<glyph unicode="&#xd6;" glyph-name="Odieresis" horiz-adv-x="543" d="M76 200V525Q76 632 129 681T271 731T413 682T467 525V200Q467 93 414 44T271 -6T129 43T76 200ZM112 200Q112 115 153 73T271 30T389 72T431 200V525Q431 610 390 652T271 695T153 653T112
525V200ZM186 876T186 889T194 910T216 918T237 910T245 889T237 868T216 859T195 867ZM297 876T297 889T305 910T327 918T348 910T356 889T348 868T327 859T306 867Z" />
<glyph unicode="&#xd7;" glyph-name="multiply" horiz-adv-x="393" d="M66 155T66 162T71 174L172 275L71 376Q66 381 66 389Q66 396 71 401T83 406Q91 406 96 401L196 300L297 401Q302 406 310 406Q317 406 322 401T327 389Q327 381 322 376L221 275L322 174Q327
169 327 162Q327 156 322 151T310 145T298 150L196 251L95 150Q90 145 83 145T71 150Z" />
<glyph unicode="&#xd8;" glyph-name="Oslash" horiz-adv-x="543" d="M59 -5Q59 1 61 4L101 81Q76 129 76 200V525Q76 632 129 681T271 731T412 682L452 760Q456 768 465 768Q471 768 477 763T483 749Q483 744 480 738L436 653Q467 601 467 525V200Q467 93 414
44T271 -6Q172 -6 123 50L92 -9Q86 -20 75 -20Q59 -20 59 -5ZM112 200Q112 157 123 124L394 647Q352 695 271 695Q194 695 153 653T112 525V200ZM141 86Q181 30 271 30Q348 30 389 72T431 200V525Q431 578 415 613L141 86Z" />
<glyph unicode="&#xd9;" glyph-name="Ugrave" horiz-adv-x="549" d="M79 200V714Q79 731 97 731T115 714V200Q115 115 156 73T274 30T392 72T434 200V714Q434 731 452 731T470 714V200Q470 93 417 44T274 -6T132 43T79 200ZM208 935Q208 953 224 953Q227 953 231
951L333 891Q341 887 341 878Q341 871 336 866T322 860Q318 860 313 863L218 917Q208 923 208 935Z" />
<glyph unicode="&#xda;" glyph-name="Uacute" horiz-adv-x="549" d="M79 200V714Q79 731 97 731T115 714V200Q115 115 156 73T274 30T392 72T434 200V714Q434 731 452 731T470 714V200Q470 93 417 44T274 -6T132 43T79 200ZM208 878Q208 887 216 891L318 951Q322
953 325 953Q341 953 341 935Q341 923 331 917L236 863Q232 860 227 860Q219 860 214 865T208 878Z" />
<glyph unicode="&#xdb;" glyph-name="Ucircumflex" horiz-adv-x="549" d="M79 200V714Q79 731 97 731T115 714V200Q115 115 156 73T274 30T392 72T434 200V714Q434 731 452 731T470 714V200Q470 93 417 44T274 -6T132 43T79 200ZM144 878Q144 888 153 892L257
948Q265 953 274 953T291 948L395 893Q404 888 404 876Q404 869 399 865T387 860L378 863L274 918L170 862Q169 862 166 861T162 859Q155 859 150 864T144 878Z" />
<glyph unicode="&#xdc;" glyph-name="Udieresis" horiz-adv-x="549" d="M79 200V714Q79 731 97 731T115 714V200Q115 115 156 73T274 30T392 72T434 200V714Q434 731 452 731T470 714V200Q470 93 417 44T274 -6T132 43T79 200ZM189 876T189 889T197 910T219 918T240
910T248 889T240 868T219 859T198 867ZM300 876T300 889T308 910T330 918T351 910T359 889T351 868T330 859T309 867Z" />
<glyph unicode="&#xdd;" glyph-name="Yacute" horiz-adv-x="509" d="M22 715Q22 731 35 731Q46 731 55 714L254 313L454 714Q462 731 474 731T486 715Q486 705 481 695L273 279Q272 277 272 273V18Q272 0 254 0T236 18V273Q236 277 235 279L28 695Q22 707 22 715ZM187
878Q187 887 195 891L297 951Q301 953 304 953Q320 953 320 935Q320 923 310 917L215 863Q210 860 206 860Q198 860 193 865T187 878Z" />
<glyph unicode="&#xde;" glyph-name="Thorn" horiz-adv-x="483" d="M83 18V715Q83 731 100 731Q118 731 118 714V542Q161 618 261 618Q331 618 381 580T432 473V281Q432 213 382 174T266 134Q217 134 174 156T118 212V18Q118 11 113 6T101 0T89 5T83 18ZM118 281Q118
239 160 204T263 169Q317 169 357 198T397 281V473Q397 526 358 554T263 583Q204 583 161 552T118 473V281Z" />
<glyph unicode="&#xdf;" glyph-name="germandbls" horiz-adv-x="528" d="M8 454Q8 472 25 472H106V590Q106 668 144 718T259 768Q330 768 373 723T417 589Q417 530 398 480T344 413Q396 403 440 345T484 215V196Q484 91 436 36T319 -20Q286 -20 248 -12T210 16Q210
23 214 28T225 33Q227 33 253 22T309 11Q375 11 413 58T452 196V215Q452 254 438 290T384 357T284 392Q267 393 260 395T253 408Q253 425 285 427Q382 433 382 577Q382 651 351 692T259 733Q197 733 169 693T141 590V17Q141 10 136 5T122 0Q106 0 106 17V437H25Q8
437 8 454Z" />
<glyph unicode="&#xe0;" glyph-name="agrave" horiz-adv-x="423" d="M35 126Q35 201 94 229T268 258H324V286Q324 350 291 396T192 443Q165 443 142 437T105 423T88 416Q80 416 75 423T70 436Q70 451 109 464T194 478Q280 478 319 424T359 286V18Q359 0 342 0Q334
0 329 5T324 18V70Q258 -6 174 -6Q112 -6 74 27T35 126ZM70 126Q70 78 98 54T173 29Q227 29 275 67T324 139V223H269Q224 223 194 220T132 208T86 178T70 126ZM130 676Q130 694 146 694Q149 694 153 692L255 632Q263 628 263 619Q263 612 258 607T244 601Q240 601
235 604L140 658Q130 664 130 676Z" />
<glyph unicode="&#xe1;" glyph-name="aacute" horiz-adv-x="423" d="M35 126Q35 201 94 229T268 258H324V286Q324 350 291 396T192 443Q165 443 142 437T105 423T88 416Q80 416 75 423T70 436Q70 451 109 464T194 478Q280 478 319 424T359 286V18Q359 0 342 0Q334
0 329 5T324 18V70Q258 -6 174 -6Q112 -6 74 27T35 126ZM70 126Q70 78 98 54T173 29Q227 29 275 67T324 139V223H269Q224 223 194 220T132 208T86 178T70 126ZM130 619Q130 628 138 632L240 692Q244 694 247 694Q263 694 263 676Q263 664 253 658L158 604Q154 601
149 601Q141 601 136 606T130 619Z" />
<glyph unicode="&#xe2;" glyph-name="acircumflex" horiz-adv-x="423" d="M35 126Q35 201 94 229T268 258H324V286Q324 350 291 396T192 443Q165 443 142 437T105 423T88 416Q80 416 75 423T70 436Q70 451 109 464T194 478Q280 478 319 424T359 286V18Q359 0 342
0Q334 0 329 5T324 18V70Q258 -6 174 -6Q112 -6 74 27T35 126ZM70 126Q70 78 98 54T173 29Q227 29 275 67T324 139V223H269Q224 223 194 220T132 208T86 178T70 126ZM71 619Q71 628 80 633L184 689Q192 694 201 694T218 689L322 634Q331 630 331 617Q331 610 326
606T314 601L305 604L201 659L97 603Q96 603 93 602T89 600Q82 600 77 605T71 619Z" />
<glyph unicode="&#xe3;" glyph-name="atilde" horiz-adv-x="423" d="M35 126Q35 201 94 229T268 258H324V286Q324 350 291 396T192 443Q165 443 142 437T105 423T88 416Q80 416 75 423T70 436Q70 451 109 464T194 478Q280 478 319 424T359 286V18Q359 0 342 0Q334
0 329 5T324 18V70Q258 -6 174 -6Q112 -6 74 27T35 126ZM49 638Q49 657 79 673T138 690Q162 690 200 672T265 653Q285 653 297 661T317 677T330 685Q344 685 344 670Q344 649 316 634T260 619Q237 619 199 637T131 656Q112 656 98 647T76 630T62 621Q49 621 49
638ZM70 126Q70 78 98 54T173 29Q227 29 275 67T324 139V223H269Q224 223 194 220T132 208T86 178T70 126Z" />
<glyph unicode="&#xe4;" glyph-name="adieresis" horiz-adv-x="423" d="M35 126Q35 201 94 229T268 258H324V286Q324 350 291 396T192 443Q165 443 142 437T105 423T88 416Q80 416 75 423T70 436Q70 451 109 464T194 478Q280 478 319 424T359 286V18Q359 0 342
0Q334 0 329 5T324 18V70Q258 -6 174 -6Q112 -6 74 27T35 126ZM70 126Q70 78 98 54T173 29Q227 29 275 67T324 139V223H269Q224 223 194 220T132 208T86 178T70 126ZM112 617T112 630T120 651T142 659T163 651T171 630T163 609T142 600T121 608ZM223 617T223 630T231
651T253 659T274 651T282 630T274 609T253 600T232 608Z" />
<glyph unicode="&#xe5;" glyph-name="aring" horiz-adv-x="423" d="M35 126Q35 201 94 229T268 258H324V286Q324 350 291 396T192 443Q165 443 142 437T105 423T88 416Q80 416 75 423T70 436Q70 451 109 464T194 478Q280 478 319 424T359 286V18Q359 0 342 0Q334
0 329 5T324 18V70Q258 -6 174 -6Q112 -6 74 27T35 126ZM70 126Q70 78 98 54T173 29Q227 29 275 67T324 139V223H269Q224 223 194 220T132 208T86 178T70 126ZM107 677Q107 713 133 740T197 768Q232 768 259 741T287 677Q287 640 260 612T197 584Q160 584 134 612T107
677ZM131 677Q131 650 150 629T197 607Q223 607 242 628T262 677Q262 701 243 721T197 742Q170 742 151 722T131 677Z" />
<glyph unicode="&#xe6;" glyph-name="ae" horiz-adv-x="719" d="M35 125Q35 200 93 229T266 258H322V287Q322 352 289 398T187 444Q153 444 119 430L85 417Q79 417 74 424T68 437Q68 452 107 465T192 479Q306 479 343 378Q366 422 408 450T501 478Q531 478 560
468T617 436T662 375T679 284Q679 246 664 235T596 223H361V176Q361 109 407 69T526 29Q562 29 587 39T626 60T646 70T658 65T664 52Q664 31 614 13T514 -6Q458 -6 411 21T341 98Q312 44 266 19T171 -6Q113 -6 74 27T35 125ZM70 124Q70 78 98 54T172 29Q230 29
276 67T322 139V223H267Q221 223 191 220T130 208T85 177T70 124ZM361 258H584Q622 258 633 265T644 293Q644 352 604 397T502 443Q442 443 402 401T361 302V258Z" />
<glyph unicode="&#xe7;" glyph-name="ccedilla" horiz-adv-x="402" d="M52 176V296Q52 377 98 427T235 478Q290 478 328 458T366 419Q366 412 361 407T348 402Q343 402 331 412T294 432T235 443Q164 443 126 404T87 296V176Q87 107 125 68T236 29Q273 29 298 39T336
60T355 70Q362 70 367 65T372 53Q372 36 337 17T249 -5L235 -65Q283 -66 306 -86T329 -135Q329 -164 307 -185T247 -207Q224 -207 199 -201T173 -183Q173 -178 177 -172T185 -165L203 -172Q221 -178 241 -178Q296 -178 296 -137Q296 -97 226 -92L197 -90L217 -5Q136
-1 94 48T52 176Z" />
<glyph unicode="&#xe8;" glyph-name="egrave" horiz-adv-x="445" d="M51 176V301Q51 373 103 425T229 478Q301 478 353 427T406 298Q406 272 400 256T380 233T355 225T323 223H86V176Q86 109 133 69T255 29Q292 29 317 39T354 60T373 70Q380 70 385 64T391 52Q391
42 375 29T326 5T253 -6Q164 -6 108 44T51 176ZM86 258H311Q348 258 359 265T371 295Q371 352 331 397T229 443Q169 443 128 401T86 301V258ZM162 676Q162 694 178 694Q181 694 185 692L287 632Q295 628 295 619Q295 612 290 607T276 601Q272 601 267 604L172 658Q162
664 162 676Z" />
<glyph unicode="&#xe9;" glyph-name="eacute" horiz-adv-x="445" d="M51 176V301Q51 373 103 425T229 478Q301 478 353 427T406 298Q406 272 400 256T380 233T355 225T323 223H86V176Q86 109 133 69T255 29Q292 29 317 39T354 60T373 70Q380 70 385 64T391 52Q391
42 375 29T326 5T253 -6Q164 -6 108 44T51 176ZM86 258H311Q348 258 359 265T371 295Q371 352 331 397T229 443Q169 443 128 401T86 301V258ZM162 619Q162 628 170 632L272 692Q276 694 279 694Q295 694 295 676Q295 664 285 658L190 604Q186 601 181 601Q173 601
168 606T162 619Z" />
<glyph unicode="&#xea;" glyph-name="ecircumflex" horiz-adv-x="445" d="M51 176V301Q51 373 103 425T229 478Q301 478 353 427T406 298Q406 272 400 256T380 233T355 225T323 223H86V176Q86 109 133 69T255 29Q292 29 317 39T354 60T373 70Q380 70 385 64T391
52Q391 42 375 29T326 5T253 -6Q164 -6 108 44T51 176ZM86 258H311Q348 258 359 265T371 295Q371 352 331 397T229 443Q169 443 128 401T86 301V258ZM98 619Q98 628 107 633L211 689Q219 694 228 694T245 689L349 634Q358 630 358 617Q358 610 353 606T341 601L332
604L228 659L124 603Q123 603 120 602T116 600Q109 600 104 605T98 619Z" />
<glyph unicode="&#xeb;" glyph-name="edieresis" horiz-adv-x="445" d="M51 176V301Q51 373 103 425T229 478Q301 478 353 427T406 298Q406 272 400 256T380 233T355 225T323 223H86V176Q86 109 133 69T255 29Q292 29 317 39T354 60T373 70Q380 70 385 64T391
52Q391 42 375 29T326 5T253 -6Q164 -6 108 44T51 176ZM86 258H311Q348 258 359 265T371 295Q371 352 331 397T229 443Q169 443 128 401T86 301V258ZM143 617T143 630T151 651T173 659T194 651T202 630T194 609T173 600T152 608ZM254 617T254 630T262 651T284 659T305
651T313 630T305 609T284 600T263 608Z" />
<glyph unicode="&#xec;" glyph-name="igrave" horiz-adv-x="171" d="M18 676Q18 694 34 694Q37 694 41 692L143 632Q151 628 151 619Q151 612 146 607T132 601Q128 601 123 604L28 658Q18 664 18 676ZM68 18V455Q68 462 73 467T85 472Q103 472 103 455V18Q103
11 98 6T85 0T73 5T68 18Z" />
<glyph unicode="&#xed;" glyph-name="iacute" horiz-adv-x="171" d="M18 619Q18 628 26 632L128 692Q132 694 135 694Q151 694 151 676Q151 664 141 658L46 604Q42 601 37 601Q29 601 24 606T18 619ZM68 18V455Q68 462 73 467T85 472Q103 472 103 455V18Q103 11
98 6T85 0T73 5T68 18Z" />
<glyph unicode="&#xee;" glyph-name="icircumflex" horiz-adv-x="171" d="M-45 619Q-45 628 -36 633L68 689Q76 694 85 694T102 689L206 634Q215 630 215 617Q215 610 210 606T198 601L189 604L85 659L-19 603Q-20 603 -23 602T-27 600Q-34 600 -39 605T-45 619ZM68
18V455Q68 462 73 467T85 472Q103 472 103 455V18Q103 11 98 6T85 0T73 5T68 18Z" />
<glyph unicode="&#xef;" glyph-name="idieresis" horiz-adv-x="171" d="M1 617T1 630T9 651T31 659T52 651T60 630T52 609T31 600T10 608ZM68 18V455Q68 462 73 467T85 472Q103 472 103 455V18Q103 11 98 6T85 0T73 5T68 18ZM112 617T112 630T120 651T142 659T163
651T171 630T163 609T142 600T121 608Z" />
<glyph unicode="&#xf0;" glyph-name="eth" horiz-adv-x="468" d="M50 176V298Q50 370 102 424T227 478Q273 478 315 455T370 392Q356 545 287 638L189 582Q184 579 180 579Q173 579 168 585T163 598Q163 608 172 612L264 665Q201 731 127 731Q115 731 115 748Q115
768 139 768Q220 768 296 683L376 729Q380 731 383 731Q390 731 395 726T401 714Q401 704 392 699L318 656Q405 539 405 365V176Q405 104 352 49T227 -6T103 49T50 176ZM85 176Q85 119 127 74T227 29T327 74T370 176V303Q370 357 328 400T227 443Q168 443 127 399T85
298V176Z" />
<glyph unicode="&#xf1;" glyph-name="ntilde" horiz-adv-x="481" d="M68 18V455Q68 472 85 472Q103 472 103 455V402Q146 478 237 478Q311 478 364 425T417 298V18Q417 0 399 0Q382 0 382 18V298Q382 354 340 398T240 443Q186 443 145 403T103 298V18Q103 11 98
6T85 0T73 5T68 18ZM90 638Q90 657 120 673T179 690Q203 690 241 672T306 653Q326 653 338 661T358 677T371 685Q385 685 385 670Q385 649 357 634T301 619Q278 619 240 637T172 656Q153 656 139 647T117 630T103 621Q90 621 90 638Z" />
<glyph unicode="&#xf2;" glyph-name="ograve" horiz-adv-x="455" d="M50 176V298Q50 370 102 424T227 478T352 425T405 298V176Q405 104 352 49T227 -6T103 49T50 176ZM85 176Q85 119 127 74T227 29T327 74T370 176V298Q370 354 328 398T227 443T127 399T85 298V176ZM161
676Q161 694 177 694Q180 694 184 692L286 632Q294 628 294 619Q294 612 289 607T275 601Q270 601 266 604L171 658Q161 664 161 676Z" />
<glyph unicode="&#xf3;" glyph-name="oacute" horiz-adv-x="455" d="M50 176V298Q50 370 102 424T227 478T352 425T405 298V176Q405 104 352 49T227 -6T103 49T50 176ZM85 176Q85 119 127 74T227 29T327 74T370 176V298Q370 354 328 398T227 443T127 399T85 298V176ZM161
619Q161 628 169 632L271 692Q275 694 278 694Q294 694 294 676Q294 664 284 658L189 604Q184 601 180 601Q172 601 167 606T161 619Z" />
<glyph unicode="&#xf4;" glyph-name="ocircumflex" horiz-adv-x="455" d="M50 176V298Q50 370 102 424T227 478T352 425T405 298V176Q405 104 352 49T227 -6T103 49T50 176ZM85 176Q85 119 127 74T227 29T327 74T370 176V298Q370 354 328 398T227 443T127 399T85
298V176ZM97 619Q97 628 106 633L210 689Q218 694 227 694T244 689L348 634Q357 630 357 617Q357 610 352 606T340 601L331 604L227 659L123 603Q122 603 119 602T115 600Q108 600 103 605T97 619Z" />
<glyph unicode="&#xf5;" glyph-name="otilde" horiz-adv-x="455" d="M50 176V298Q50 370 102 424T227 478T352 425T405 298V176Q405 104 352 49T227 -6T103 49T50 176ZM80 638Q80 657 110 673T169 690Q193 690 231 672T296 653Q316 653 328 661T348 677T361 685Q375
685 375 670Q375 649 347 634T291 619Q268 619 230 637T162 656Q143 656 129 647T107 630T93 621Q80 621 80 638ZM85 176Q85 119 127 74T227 29T327 74T370 176V298Q370 354 328 398T227 443T127 399T85 298V176Z" />
<glyph unicode="&#xf6;" glyph-name="odieresis" horiz-adv-x="455" d="M50 176V298Q50 370 102 424T227 478T352 425T405 298V176Q405 104 352 49T227 -6T103 49T50 176ZM85 176Q85 119 127 74T227 29T327 74T370 176V298Q370 354 328 398T227 443T127 399T85
298V176ZM142 617T142 630T150 651T172 659T193 651T201 630T193 609T172 600T151 608ZM253 617T253 630T261 651T283 659T304 651T312 630T304 609T283 600T262 608Z" />
<glyph unicode="&#xf7;" glyph-name="divide" horiz-adv-x="461" d="M53 240Q53 258 70 258H390Q397 258 402 253T408 240T403 228T390 223H70Q53 223 53 240ZM183 63T183 80T196 110T227 123Q244 123 257 110T270 80T257 50T227 37Q209 37 196 50ZM183 384T183
401T196 431T227 444Q244 444 257 431T270 401T257 371T227 358Q209 358 196 371Z" />
<glyph unicode="&#xf8;" glyph-name="oslash" horiz-adv-x="455" d="M50 176V298Q50 370 102 424T227 478Q274 478 316 453L341 501Q345 509 354 509Q360 509 366 504T372 490Q372 485 369 479L344 432Q405 378 405 298V176Q405 104 352 49T227 -6Q178 -6 134
23L111 -21Q106 -32 94 -32Q78 -32 78 -17Q78 -11 80 -8L107 45Q50 100 50 176ZM85 176Q85 120 123 77L300 421Q267 443 227 443Q168 443 127 399T85 298V176ZM149 54Q183 29 227 29Q285 29 327 74T370 176V298Q370 356 327 399L149 54Z" />
<glyph unicode="&#xf9;" glyph-name="ugrave" horiz-adv-x="483" d="M64 174V454Q64 461 69 466T82 472T94 467T99 454V174Q99 117 141 73T242 29Q300 29 342 73T384 174V455Q384 462 389 467T402 472T414 467T419 455V174Q419 102 367 48T242 -6Q169 -6 117 48T64
174ZM175 676Q175 694 191 694Q194 694 198 692L300 632Q308 628 308 619Q308 612 303 607T289 601Q284 601 280 604L185 658Q175 664 175 676Z" />
<glyph unicode="&#xfa;" glyph-name="uacute" horiz-adv-x="483" d="M64 174V454Q64 461 69 466T82 472T94 467T99 454V174Q99 117 141 73T242 29Q300 29 342 73T384 174V455Q384 462 389 467T402 472T414 467T419 455V174Q419 102 367 48T242 -6Q169 -6 117 48T64
174ZM175 619Q175 628 183 632L285 692Q289 694 292 694Q308 694 308 676Q308 664 298 658L203 604Q198 601 194 601Q186 601 181 606T175 619Z" />
<glyph unicode="&#xfb;" glyph-name="ucircumflex" horiz-adv-x="483" d="M64 174V454Q64 461 69 466T82 472T94 467T99 454V174Q99 117 141 73T242 29Q300 29 342 73T384 174V455Q384 462 389 467T402 472T414 467T419 455V174Q419 102 367 48T242 -6Q169 -6
117 48T64 174ZM111 619Q111 628 120 633L224 689Q232 694 241 694T258 689L362 634Q371 630 371 617Q371 610 366 606T354 601L345 604L241 659L137 603Q136 603 133 602T129 600Q122 600 117 605T111 619Z" />
<glyph unicode="&#xfc;" glyph-name="udieresis" horiz-adv-x="483" d="M64 174V454Q64 461 69 466T82 472T94 467T99 454V174Q99 117 141 73T242 29Q300 29 342 73T384 174V455Q384 462 389 467T402 472T414 467T419 455V174Q419 102 367 48T242 -6Q169 -6 117
48T64 174ZM156 617T156 630T164 651T186 659T207 651T215 630T207 609T186 600T165 608ZM267 617T267 630T275 651T297 659T318 651T326 630T318 609T297 600T276 608Z" />
<glyph unicode="&#xfd;" glyph-name="yacute" horiz-adv-x="395" d="M18 461Q18 468 23 473T37 478Q50 478 53 467L198 67L342 467Q347 478 358 478Q376 478 376 461Q376 457 375 455L215 13L195 -42Q189 -58 174 -95T146 -151T116 -193T78 -226T36 -237Q29 -237
24 -232T19 -220Q19 -202 34 -202Q51 -202 67 -194T97 -167T120 -132T143 -84T162 -38L180 13L20 455Q18 459 18 461ZM130 619Q130 628 138 632L240 692Q244 694 247 694Q263 694 263 676Q263 664 253 658L158 604Q154 601 149 601Q141 601 136 606T130 619Z" />
<glyph unicode="&#xfe;" glyph-name="thorn" horiz-adv-x="468" d="M69 -219V751Q69 768 86 768Q104 768 104 751V402Q147 478 238 478Q312 478 365 425T418 298V176Q418 104 365 49T240 -6Q196 -6 159 16T104 70V-219Q104 -226 99 -231T86 -237T74 -232T69 -219ZM104
139Q104 108 146 69T242 29Q298 29 340 74T383 176V298Q383 354 341 398T241 443Q187 443 146 403T104 298V139Z" />
<glyph unicode="&#xff;" glyph-name="ydieresis" horiz-adv-x="395" d="M18 461Q18 468 23 473T37 478Q50 478 53 467L198 67L342 467Q347 478 358 478Q376 478 376 461Q376 457 375 455L215 13L195 -42Q189 -58 174 -95T146 -151T116 -193T78 -226T36 -237Q29
-237 24 -232T19 -220Q19 -202 34 -202Q51 -202 67 -194T97 -167T120 -132T143 -84T162 -38L180 13L20 455Q18 459 18 461ZM112 617T112 630T120 651T142 659T163 651T171 630T163 609T142 600T121 608ZM223 617T223 630T231 651T253 659T274 651T282 630T274 609T253
600T232 608Z" />
<glyph unicode="&#x2013;" glyph-name="endash" horiz-adv-x="455" d="M50 240Q50 258 67 258H387Q394 258 399 253T405 240T400 228T387 223H67Q50 223 50 240Z" />
<glyph unicode="&#x2014;" glyph-name="emdash" horiz-adv-x="735" d="M50 240Q50 258 67 258H667Q674 258 679 253T685 240T680 228T667 223H67Q50 223 50 240Z" />
<glyph unicode="&#x2018;" glyph-name="quoteleft" horiz-adv-x="150" d="M39 634Q39 665 72 731Q77 741 86 741Q102 741 102 726Q102 722 101 720L83 669Q110 662 110 634Q110 619 100 609T74 598Q60 598 50 608T39 634Z" />
<glyph unicode="&#x2019;" glyph-name="quoteright" horiz-adv-x="148" d="M41 705Q41 720 51 730T77 741Q91 741 101 731T112 705Q112 674 79 608Q74 598 65 598Q49 598 49 613Q49 617 50 619L68 670Q41 677 41 705Z" />
<glyph unicode="&#x201a;" glyph-name="quotesinglbase" horiz-adv-x="162" d="M45 30Q45 45 55 55T81 66Q95 66 105 56T116 30Q116 -1 83 -67Q78 -77 69 -77Q53 -77 53 -62Q53 -58 54 -56L72 -5Q45 2 45 30Z" />
<glyph unicode="&#x201c;" glyph-name="quotedblleft" horiz-adv-x="284" d="M39 634Q39 665 72 731Q77 741 86 741Q102 741 102 726Q102 722 101 720L83 669Q110 662 110 634Q110 619 100 609T74 598Q60 598 50 608T39 634ZM173 634Q173 665 206 731Q211 741
220 741Q236 741 236 726Q236 722 235 720L217 669Q244 662 244 634Q244 619 234 609T208 598Q194 598 184 608T173 634Z" />
<glyph unicode="&#x201d;" glyph-name="quotedblright" horiz-adv-x="282" d="M41 705Q41 720 51 730T77 741Q91 741 101 731T112 705Q112 674 79 608Q74 598 65 598Q49 598 49 613Q49 617 50 619L68 670Q41 677 41 705ZM175 705Q175 720 185 730T211 741Q225
741 235 731T246 705Q246 674 213 608Q208 598 199 598Q183 598 183 613Q183 617 184 619L202 670Q175 677 175 705Z" />
<glyph unicode="&#x201e;" glyph-name="quotedblbase" horiz-adv-x="296" d="M45 30Q45 45 55 55T81 66Q95 66 105 56T116 30Q116 -1 83 -67Q78 -77 69 -77Q53 -77 53 -62Q53 -58 54 -56L72 -5Q45 2 45 30ZM179 30Q179 45 189 55T215 66Q229 66 239 56T250 30Q250
-1 217 -67Q212 -77 203 -77Q187 -77 187 -62Q187 -58 188 -56L206 -5Q179 2 179 30Z" />
<glyph unicode="&#x2022;" glyph-name="bullet" horiz-adv-x="304" d="M56 300Q56 337 84 365T152 393Q190 393 218 365T247 300Q247 262 219 234T152 206Q113 206 85 234T56 300Z" />
<glyph unicode="&#x2039;" glyph-name="guilsinglleft" horiz-adv-x="215" d="M40 268T40 277T45 294L141 472Q146 481 158 481Q165 481 169 476T174 464Q174 460 171 455L75 277L171 100Q174 96 174 91Q174 84 169 79T156 74Q146 74 141 83L45 260Q40 268 40 277Z" />
<glyph unicode="&#x203a;" glyph-name="guilsinglright" horiz-adv-x="215" d="M41 91Q41 96 44 100L140 277L44 455Q41 460 41 464Q41 471 45 476T57 481Q70 481 74 472L170 294Q175 286 175 277T170 260L74 83Q69 74 59 74Q52 74 47 79T41 91Z" />
</font>
</defs>
</svg>
